<mxfile host="drawio-plugin" modified="2021-11-07T03:06:04.136Z" agent="5.0 (Windows NT 6.2; Win64; x64) AppleWebKit/537.36 (KHTML, like Gecko) Chrome/89.0.4389.90 Safari/537.36" etag="N7bwAkSqcxt2Y9KePT-g" version="14.7.4" type="embed"><diagram id="sANdWi53w7MzKKCcenLM" name="类图"><mxGraphModel dx="686" dy="526" grid="1" gridSize="10" guides="1" tooltips="1" connect="1" arrows="1" fold="1" page="1" pageScale="1" pageWidth="827" pageHeight="1169" math="0" shadow="0"><root><mxCell id="_K0s_dDingPqgPI3_KjU-0"/><mxCell id="_K0s_dDingPqgPI3_KjU-1" parent="_K0s_dDingPqgPI3_KjU-0"/><mxCell id="_K0s_dDingPqgPI3_KjU-8" style="rounded=0;orthogonalLoop=1;jettySize=auto;html=1;exitX=0.5;exitY=1;exitDx=0;exitDy=0;entryX=0.5;entryY=0;entryDx=0;entryDy=0;" parent="_K0s_dDingPqgPI3_KjU-1" source="_K0s_dDingPqgPI3_KjU-2" target="_K0s_dDingPqgPI3_KjU-4" edge="1"><mxGeometry relative="1" as="geometry"/></mxCell><mxCell id="_K0s_dDingPqgPI3_KjU-9" style="edgeStyle=none;rounded=0;orthogonalLoop=1;jettySize=auto;html=1;exitX=0.5;exitY=1;exitDx=0;exitDy=0;entryX=0.5;entryY=0;entryDx=0;entryDy=0;" parent="_K0s_dDingPqgPI3_KjU-1" source="_K0s_dDingPqgPI3_KjU-2" target="_K0s_dDingPqgPI3_KjU-3" edge="1"><mxGeometry relative="1" as="geometry"/></mxCell><mxCell id="_K0s_dDingPqgPI3_KjU-2" value="&lt;pre style=&quot;background-color: #ffffff ; color: #080808 ; font-family: &amp;quot;jetbrains mono&amp;quot; , monospace ; font-size: 13.5pt&quot;&gt;&lt;span style=&quot;color: #000000&quot;&gt;MyBatisDynamicQueryer&lt;/span&gt;&lt;/pre&gt;" style="rounded=0;whiteSpace=wrap;html=1;" parent="_K0s_dDingPqgPI3_KjU-1" vertex="1"><mxGeometry x="304" y="100" width="220" height="70" as="geometry"/></mxCell><mxCell id="_K0s_dDingPqgPI3_KjU-3" value="&lt;pre style=&quot;background-color: #ffffff ; color: #080808 ; font-family: &amp;#34;jetbrains mono&amp;#34; , monospace ; font-size: 13.5pt&quot;&gt;&lt;span style=&quot;color: #000000&quot;&gt;SqlSessionFactory&lt;/span&gt;&lt;/pre&gt;&lt;pre style=&quot;background-color: #ffffff ; color: #080808 ; font-family: &amp;#34;jetbrains mono&amp;#34; , monospace ; font-size: 13.5pt&quot;&gt;&lt;pre style=&quot;font-family: &amp;#34;jetbrains mono&amp;#34; , monospace ; font-size: 13.5pt&quot;&gt;&lt;span style=&quot;color: #871094&quot;&gt;sqlSessionFactory&lt;/span&gt;&lt;/pre&gt;&lt;/pre&gt;" style="rounded=1;whiteSpace=wrap;html=1;" parent="_K0s_dDingPqgPI3_KjU-1" vertex="1"><mxGeometry x="490" y="240" width="200" height="70" as="geometry"/></mxCell><mxCell id="_K0s_dDingPqgPI3_KjU-10" style="edgeStyle=none;rounded=0;orthogonalLoop=1;jettySize=auto;html=1;exitX=0.5;exitY=1;exitDx=0;exitDy=0;entryX=0.5;entryY=0;entryDx=0;entryDy=0;" parent="_K0s_dDingPqgPI3_KjU-1" source="_K0s_dDingPqgPI3_KjU-4" target="_K0s_dDingPqgPI3_KjU-7" edge="1"><mxGeometry relative="1" as="geometry"/></mxCell><mxCell id="_K0s_dDingPqgPI3_KjU-11" style="edgeStyle=none;rounded=0;orthogonalLoop=1;jettySize=auto;html=1;exitX=0.5;exitY=1;exitDx=0;exitDy=0;entryX=0.5;entryY=0;entryDx=0;entryDy=0;" parent="_K0s_dDingPqgPI3_KjU-1" source="_K0s_dDingPqgPI3_KjU-4" target="_K0s_dDingPqgPI3_KjU-5" edge="1"><mxGeometry relative="1" as="geometry"/></mxCell><mxCell id="_K0s_dDingPqgPI3_KjU-4" value="&lt;pre style=&quot;background-color: #ffffff ; color: #080808 ; font-family: &amp;#34;jetbrains mono&amp;#34; , monospace ; font-size: 13.5pt&quot;&gt;&lt;span style=&quot;color: #000000&quot;&gt;SqlBuilderStatement&lt;/span&gt;&lt;/pre&gt;&lt;pre style=&quot;background-color: #ffffff ; color: #080808 ; font-family: &amp;#34;jetbrains mono&amp;#34; , monospace ; font-size: 13.5pt&quot;&gt;&lt;pre style=&quot;font-family: &amp;#34;jetbrains mono&amp;#34; , monospace ; font-size: 13.5pt&quot;&gt;&lt;span style=&quot;color: #871094&quot;&gt;sqlBuilderStatement&lt;/span&gt;&lt;/pre&gt;&lt;/pre&gt;" style="rounded=0;whiteSpace=wrap;html=1;" parent="_K0s_dDingPqgPI3_KjU-1" vertex="1"><mxGeometry x="150" y="240" width="190" height="80" as="geometry"/></mxCell><mxCell id="_K0s_dDingPqgPI3_KjU-5" value="&lt;pre style=&quot;background-color: #ffffff ; color: #080808 ; font-family: &amp;#34;jetbrains mono&amp;#34; , monospace ; font-size: 13.5pt&quot;&gt;&lt;span style=&quot;color: #000000&quot;&gt;Configuration&lt;/span&gt;&lt;/pre&gt;&lt;pre style=&quot;background-color: #ffffff ; color: #080808 ; font-family: &amp;#34;jetbrains mono&amp;#34; , monospace ; font-size: 13.5pt&quot;&gt;&lt;pre style=&quot;font-family: &amp;#34;jetbrains mono&amp;#34; , monospace ; font-size: 13.5pt&quot;&gt;&lt;span style=&quot;color: #871094&quot;&gt;configuration&lt;/span&gt;&lt;/pre&gt;&lt;/pre&gt;" style="rounded=1;whiteSpace=wrap;html=1;" parent="_K0s_dDingPqgPI3_KjU-1" vertex="1"><mxGeometry x="290" y="420" width="140" height="70" as="geometry"/></mxCell><mxCell id="_K0s_dDingPqgPI3_KjU-7" value="&lt;pre style=&quot;background-color: #ffffff ; color: #080808 ; font-family: &amp;#34;jetbrains mono&amp;#34; , monospace ; font-size: 13.5pt&quot;&gt;&lt;span style=&quot;color: #000000&quot;&gt;LanguageDriver&lt;/span&gt;&lt;/pre&gt;&lt;pre style=&quot;background-color: #ffffff ; color: #080808 ; font-family: &amp;#34;jetbrains mono&amp;#34; , monospace ; font-size: 13.5pt&quot;&gt;&lt;pre style=&quot;font-family: &amp;#34;jetbrains mono&amp;#34; , monospace ; font-size: 13.5pt&quot;&gt;&lt;span style=&quot;color: #871094&quot;&gt;languageDriver&lt;/span&gt;&lt;/pre&gt;&lt;/pre&gt;" style="rounded=0;whiteSpace=wrap;html=1;" parent="_K0s_dDingPqgPI3_KjU-1" vertex="1"><mxGeometry x="50" y="420" width="140" height="70" as="geometry"/></mxCell></root></mxGraphModel></diagram></mxfile>